General
Complete name                            : Ice.Age.2.(2006).DVDRip.x264.Eng.AAC.5.1.AMX
Format                                   : MPEG-4
Format profile                           : Base Media
Codec ID                                 : isom
File size                                : 848 MiB
Duration                                 : 1h 26mn
Overall bit rate mode                    : Variable
Overall bit rate                         : 1 365 Kbps

Video
ID                                       : 1
Format                                   : AVC
Bit rate                                 : 1 024 Kbps
Maximum bit rate                         : 6 249 Kbps
Width                                    : 720 pixels
Height                                   : 384 pixels
Display aspect ratio                     : 1.85:1
Frame rate mode                          : Constant
Frame rate                               : 25.000 fps
Color space                              : YUV
Chroma subsampling                       : 4:2:0
Bit depth                                : 8 bits
Scan type                                : Progressive
Bits/(Pixel*Frame)                       : 0.148
Stream size                              : 637 MiB (75%)
Writing library                          : x264 core 125 r2200 999b753

Audio
ID                                       : 2
Format                                   : AAC
Format/Info                              : Advanced Audio Codec
Format profile                           : LC
Codec ID                                 : 40
Duration                                 : 1h 26mn
Bit rate mode                            : Variable
Bit rate                                 : 336 Kbps
Maximum bit rate                         : 384 Kbps
Channel(s)                               : 6 channels
Channel positions                        : Front: L C R, Side: L R, LFE
Sampling rate                            : 48.0 KHz
Compression mode                         : Lossy
Stream size                              : 209 MiB (25%)
